<?xml version="1.0" standalone="no"?>
<!DOCTYPE svg PUBLIC "-//W3C//DTD SVG 20010904//EN"
 "http://www.w3.org/TR/2001/REC-SVG-20010904/DTD/svg10.dtd">
<svg version="1.0" xmlns="http://www.w3.org/2000/svg"
 width="500.000000pt" height="192.000000pt" viewBox="0 0 500.000000 192.000000"
 preserveAspectRatio="xMidYMid meet">

<g transform="translate(0.000000,192.000000) scale(0.100000,-0.100000)"
fill="#000000" stroke="none">
<path d="M875 1834 c-218 -30 -366 -96 -512 -228 -116 -105 -216 -278 -254
-442 -31 -133 -24 -320 16 -444 47 -145 97 -231 199 -339 185 -194 405 -281
679 -268 384 18 706 291 793 673 22 99 23 271 0 372 -69 315 -318 572 -630
652 -72 18 -235 32 -291 24z m325 -48 c274 -89 478 -293 565 -566 40 -123 46
-307 16 -435 -29 -123 -96 -256 -177 -353 -328 -396 -921 -413 -1272 -38 -421
450 -236 1187 347 1383 114 38 145 42 296 39 120 -2 152 -7 225 -30z"/>
<path d="M828 1733 c6 -2 18 -2 25 0 6 3 1 5 -13 5 -14 0 -19 -2 -12 -5z"/>
<path d="M992 1728 c-15 -15 -16 -35 -2 -43 6 -4 7 1 3 11 -4 11 1 22 12 30
10 8 14 14 9 14 -6 0 -15 -5 -22 -12z"/>
<path d="M1067 1730 c12 -5 26 -17 32 -27 6 -10 11 -13 11 -7 0 15 -34 44 -51
43 -8 0 -4 -4 8 -9z"/>
<path d="M770 1720 c0 -5 7 -7 15 -4 8 4 15 8 15 10 0 2 -7 4 -15 4 -8 0 -15
-4 -15 -10z"/>
<path d="M855 1700 c-3 -5 -1 -10 4 -10 6 0 11 5 11 10 0 6 -2 10 -4 10 -3 0
-8 -4 -11 -10z"/>
<path d="M781 1684 c0 -11 3 -14 6 -6 3 7 2 16 -1 19 -3 4 -6 -2 -5 -13z"/>
<path d="M1212 1689 c10 -8 24 -31 31 -52 12 -35 14 -37 27 -22 8 10 9 15 2
13 -6 -2 -19 12 -29 31 -10 19 -25 37 -33 39 -11 3 -10 1 2 -9z"/>
<path d="M679 1673 c5 -10 9 -22 9 -28 0 -5 6 -11 12 -13 7 -3 6 7 -4 27 -9
17 -19 31 -22 31 -2 0 0 -8 5 -17z"/>
<path d="M1038 1663 c6 -2 18 -2 25 0 6 3 1 5 -13 5 -14 0 -19 -2 -12 -5z"/>
<path d="M1295 1640 c-3 -5 1 -10 9 -10 9 0 16 5 16 10 0 6 -4 10 -9 10 -6 0
-13 -4 -16 -10z"/>
<path d="M570 1633 c0 -15 18 -35 23 -27 3 5 -1 15 -9 22 -8 7 -14 9 -14 5z"/>
<path d="M1296 1603 c-6 -14 -5 -15 5 -6 7 7 10 15 7 18 -3 3 -9 -2 -12 -12z"/>
<path d="M465 1580 c-3 -6 1 -7 9 -4 18 7 21 14 7 14 -6 0 -13 -4 -16 -10z"/>
<path d="M1430 1556 c0 -2 7 -6 15 -10 8 -3 15 -1 15 4 0 6 -7 10 -15 10 -8 0
-15 -2 -15 -4z"/>
<path d="M422 1538 c-14 -14 -16 -44 -3 -52 5 -4 7 3 4 14 -3 11 0 27 7 35 15
18 9 20 -8 3z"/>
<path d="M812 1536 c-141 -35 -283 -141 -358 -269 -101 -173 -105 -400 -9
-573 160 -287 522 -384 804 -217 128 76 244 240 271 382 48 258 -79 516 -311
630 -46 23 -108 46 -138 51 -72 13 -194 11 -259 -4z m293 -23 c170 -42 324
-191 381 -367 68 -212 9 -437 -155 -588 -294 -270 -757 -159 -906 217 -34 84
-45 230 -25 316 36 157 149 305 288 377 67 35 112 48 222 66 37 6 127 -4 195
-21z"/>
<path d="M896 1172 c-27 -64 -76 -180 -108 -257 -34 -83 -68 -149 -83 -162
-14 -12 -25 -25 -25 -28 0 -7 75 -6 83 2 4 3 -1 11 -10 18 -14 11 -13 17 12
64 16 29 47 65 69 82 39 29 134 64 144 54 3 -3 23 -47 44 -98 33 -79 36 -94
23 -103 -8 -6 -12 -14 -8 -17 10 -11 181 -8 188 3 3 6 0 10 -8 10 -22 0 -42
29 -77 115 -18 44 -51 125 -75 180 -23 55 -57 135 -75 178 -17 42 -35 77 -38
77 -4 0 -29 -53 -56 -118z m157 -151 c53 -126 99 -241 103 -255 6 -25 4 -26
-34 -26 l-39 0 -63 153 c-35 83 -74 177 -87 208 -22 55 -23 58 -6 103 10 25
20 46 24 46 3 0 49 -103 102 -229z m-113 19 c17 -39 30 -73 30 -75 0 -2 -18
-6 -39 -10 -22 -4 -61 -20 -87 -36 -37 -24 -45 -27 -40 -12 38 101 93 220 99
214 4 -4 21 -41 37 -81z"/>
<path d="M1392 1543 c27 -4 51 -32 61 -68 4 -18 5 -17 6 2 2 33 -37 73 -68 72
l-26 -2 27 -4z"/>
<path d="M494 1508 l-19 -23 23 19 c21 18 27 26 19 26 -2 0 -12 -10 -23 -22z"/>
<path d="M266 1191 c-36 -114 -44 -240 -22 -350 19 -92 53 -191 66 -191 5 0
-5 36 -21 81 -52 141 -55 322 -10 458 12 35 20 68 18 75 -2 6 -16 -27 -31 -73z"/>
<path d="M1604 1255 c5 -11 19 -63 33 -115 34 -131 29 -254 -16 -389 -35 -103
-35 -130 -1 -54 38 85 52 177 47 308 -4 118 -31 233 -59 260 -8 7 -9 4 -4 -10z"/>
<path d="M556 395 c-20 -31 -21 -41 -1 -21 8 8 15 19 15 24 0 6 6 13 13 15 7
4 8 6 1 6 -7 1 -19 -10 -28 -24z"/>
<path d="M1273 395 c-18 -8 -33 -16 -33 -19 0 -3 15 1 33 8 17 7 39 16 47 19
13 5 13 5 0 6 -8 0 -30 -6 -47 -14z"/>
<path d="M634 386 c11 -9 23 -21 27 -27 4 -6 9 -7 12 -2 3 5 -8 17 -26 27 -24
13 -27 13 -13 2z"/>
<path d="M1341 383 c-1 -15 -15 -31 -41 -48 -22 -14 -42 -25 -45 -25 -3 0 -12
15 -20 33 -8 17 -14 25 -15 16 0 -9 8 -27 18 -39 l18 -23 43 27 c44 28 57 46
48 68 -3 7 -6 3 -6 -9z"/>
<path d="M623 349 c9 -5 17 -17 17 -25 0 -9 -5 -12 -12 -8 -7 4 -8 3 -4 -4 12
-20 26 -13 26 12 0 13 -7 27 -16 30 -24 9 -31 7 -11 -5z"/>
<path d="M1060 311 c0 -5 9 -7 20 -4 11 3 20 7 20 9 0 2 -9 4 -20 4 -11 0 -20
-4 -20 -9z"/>
<path d="M1167 300 c-3 -11 -1 -20 4 -20 5 0 9 9 9 20 0 11 -2 20 -4 20 -2 0
-6 -9 -9 -20z"/>
<path d="M882 273 c1 -37 1 -37 5 -6 4 32 5 32 66 36 l62 3 -67 2 -68 2 2 -37z"/>
<path d="M710 285 c0 -8 4 -15 10 -15 5 0 7 7 4 15 -4 8 -8 15 -10 15 -2 0 -4
-7 -4 -15z"/>
<path d="M788 253 c7 -3 16 -2 19 1 4 3 -2 6 -13 5 -11 0 -14 -3 -6 -6z"/>
<path d="M928 233 c12 -2 30 -2 40 0 9 3 -1 5 -23 4 -22 0 -30 -2 -17 -4z"/>
<path d="M2180 1369 c-112 -12 -194 -70 -194 -136 0 -75 108 -133 251 -133
101 0 163 16 163 42 0 16 -4 19 -22 14 -81 -24 -141 -29 -199 -18 -117 22
-168 68 -141 127 27 59 177 90 290 61 78 -20 72 -20 72 3 0 12 -10 21 -27 26
-54 14 -139 20 -193 14z"/>
<path d="M3519 1357 c-158 -45 -171 -181 -23 -236 112 -43 262 -15 311 58 28
41 29 66 4 107 -39 65 -187 101 -292 71z m197 -46 c43 -20 74 -54 74 -82 0
-26 -65 -77 -107 -85 -91 -18 -170 -4 -218 38 -19 16 -35 38 -35 48 0 27 42
72 81 86 53 19 157 17 205 -5z"/>
<path d="M2448 1230 l-3 -130 25 0 c23 0 25 3 25 52 l0 53 91 -1 c140 -2 257
-46 240 -90 -4 -10 2 -14 22 -14 l27 0 -3 130 c-3 126 -4 130 -25 130 -21 0
-22 -3 -19 -86 l4 -85 -29 14 c-47 25 -110 38 -211 45 l-97 7 0 53 c0 47 -2
52 -22 52 -21 0 -22 -4 -25 -130z"/>
<path d="M2925 1230 c0 -128 0 -130 23 -130 20 0 22 5 22 50 l0 50 111 0 c106
0 112 -1 154 -30 24 -17 51 -40 59 -51 9 -13 22 -19 38 -17 21 3 19 7 -34 61
-62 62 -65 67 -45 67 7 0 29 14 50 31 40 33 51 81 21 93 -9 3 -102 6 -207 6
l-192 0 0 -130z m373 78 c-14 -41 -95 -67 -213 -67 -102 -1 -115 4 -115 45 l0
34 166 0 c124 0 165 -3 162 -12z"/>
<path d="M3875 1230 c0 -128 0 -130 23 -130 21 0 22 3 22 100 0 112 2 115 69
80 41 -20 123 -105 147 -152 26 -50 48 -36 93 57 23 47 46 85 52 85 7 0 9 -31
7 -85 -3 -79 -2 -85 17 -85 19 0 20 7 21 130 0 129 0 130 -23 130 -13 0 -23
-6 -23 -13 0 -8 -8 -21 -18 -30 -10 -9 -33 -45 -52 -81 l-34 -64 -62 62 c-34
35 -79 71 -101 80 -21 10 -51 24 -67 32 -16 8 -39 14 -50 14 -20 0 -21 -5 -21
-130z"/>
<path d="M4570 1350 c0 -13 -177 -237 -193 -243 -6 -3 7 -6 31 -6 25 -1 41 3
37 9 -3 5 11 27 31 50 33 36 41 40 84 40 78 0 210 -54 210 -86 0 -9 12 -14 35
-14 l36 0 -80 95 c-45 52 -91 111 -103 130 -19 28 -29 35 -55 35 -18 0 -33 -4
-33 -10z m79 -81 c18 -22 31 -42 28 -45 -4 -4 -85 11 -115 21 -10 4 -8 12 10
34 13 17 28 30 34 30 6 1 25 -17 43 -40z"/>
<path d="M2265 750 l0 -130 202 0 c190 0 203 1 213 19 15 30 -4 69 -45 88 -19
9 -35 19 -35 22 1 3 15 15 33 26 38 24 56 67 37 89 -10 14 -43 16 -209 16
l-196 0 0 -130z m366 71 c-18 -33 -80 -54 -177 -59 -126 -6 -144 -1 -144 43
l0 35 165 0 c159 0 165 -1 156 -19z m-101 -102 c65 -10 110 -31 110 -49 0 -10
-322 -15 -332 -5 -2 3 -3 18 0 35 l4 30 77 0 c42 0 105 -5 141 -11z"/>
<path d="M2725 750 l0 -130 203 0 c195 0 202 1 202 20 0 19 -8 20 -182 22
l-183 3 0 108 c0 100 -1 107 -20 107 -19 0 -20 -7 -20 -130z"/>
<path d="M3175 750 l0 -130 223 0 c215 0 222 1 222 20 0 19 -7 20 -200 20
l-200 0 0 31 0 30 135 -3 c134 -3 135 -3 135 20 0 22 -2 22 -135 22 l-135 0 0
40 0 41 200 -3 200 -3 0 23 0 22 -222 0 -223 0 0 -130z"/>
<path d="M3675 750 c0 -123 1 -130 20 -130 19 0 20 7 20 97 0 85 2 98 17 101
35 7 151 -62 223 -130 38 -38 77 -68 85 -68 13 0 15 21 15 130 0 128 0 130
-22 130 -22 0 -23 -4 -23 -85 0 -47 -2 -85 -4 -85 -3 0 -36 23 -73 52 -70 52
-155 98 -185 98 -9 0 -20 5 -23 10 -3 6 -16 10 -28 10 -22 0 -22 -3 -22 -130z"/>
<path d="M4115 749 l0 -132 150 6 c163 5 221 19 268 63 20 18 27 34 27 63 0
91 -101 131 -329 131 l-116 0 0 -131z m298 77 c124 -29 144 -108 37 -145 -47
-17 -216 -26 -260 -14 l-35 9 -3 69 c-2 37 -1 74 2 82 7 18 181 17 259 -1z"/>
</g>
</svg>
